ffmpeg started on 2025-06-19 at 12:08:41
Report written to "D:\Convert\FFMetrics\reports\ssim_report-6.txt"
Log level: 32
Command line:
ffmpeg -hide_banner -nostdin -i "G:\\\xc0\xed\xe8\xec\xe5\\[\xd2\xee\xef-4]\\Fate\\\xc0\xef\xee\xea\xf0\xe8\xf4\\Fate_Apocrypha_[22]_[AniLibria_TV]_[HDTVRip_720p]_HEVC.mkv" -i "G:\\\xc0\xed\xe8\xec\xe5\\[\xd2\xee\xef-4]\\Fate\\\xc0\xef\xee\xea\xf0\xe8\xf4\\Fate_Apocrypha_[22]_[AniLibria_TV]_[HDTVRip_720p].mkv" -lavfi "[0:v]settb=AVTB,setpts=PTS-STARTPTS,format=pix_fmts=yuv420p10,fps=24000/1001,scale=1280:720:flags=bicubic[main];[1:v]settb=AVTB,setpts=PTS-STARTPTS,format=pix_fmts=yuv420p,fps=24000/1001,scale=1280:720:flags=bicubic[ref];[main][ref]ssim=eof_action=endall:stats_file='D\\:/Convert/FFMetrics/logs/ssim_logfile-6.txt'" -f null -
Input #0, matroska,webm, from 'G:\Аниме\[Топ-4]\Fate\Апокриф\Fate_Apocrypha_[22]_[AniLibria_TV]_[HDTVRip_720p]_HEVC.mkv':
  Metadata:
    ENCODER         : Lavf61.7.100
  Duration: 00:24:00.17, start: -0.021000, bitrate: 922 kb/s
  Stream #0:0(jpn): Video: hevc (Main 10), yuv420p10le(tv, bt709, progressive), 1280x720 [SAR 1:1 DAR 16:9], 23.81 fps, 23.81 tbr, 1k tbn (default)
      Metadata:
        ENCODER         : Lavc61.19.100 libx265
        BPS             : 723594
        DURATION        : 00:24:00.054000000
        NUMBER_OF_FRAMES: 34526
        NUMBER_OF_BYTES : 130251898
        _STATISTICS_WRITING_APP: mkvpropedit v66.0.0 ('Josie') 64-bit
        _STATISTICS_WRITING_DATE_UTC: 2025-06-17 07:38:05
        _STATISTICS_TAGS: BPS DURATION NUMBER_OF_FRAMES NUMBER_OF_BYTES
  Stream #0:1(rus): Audio: aac (LC), 48000 Hz, stereo, fltp (default)
      Metadata:
        title           : Ados Amikiri Anzen Hekomi Silv
        ENCODER         : Lavc61.19.100 aac
        BPS             : 194402
        DURATION        : 00:24:00.149000000
        NUMBER_OF_FRAMES: 67508
        NUMBER_OF_BYTES : 34996048
        _STATISTICS_WRITING_APP: mkvpropedit v66.0.0 ('Josie') 64-bit
        _STATISTICS_WRITING_DATE_UTC: 2025-06-17 07:38:05
        _STATISTICS_TAGS: BPS DURATION NUMBER_OF_FRAMES NUMBER_OF_BYTES
  Stream #0:2(rus): Subtitle: ass (ssa) (default) (forced)
      Metadata:
        title           : Надписи
        BPS             : 530
        DURATION        : 00:00:03.000000000
        NUMBER_OF_FRAMES: 2
        NUMBER_OF_BYTES : 199
        _STATISTICS_WRITING_APP: mkvpropedit v66.0.0 ('Josie') 64-bit
        _STATISTICS_WRITING_DATE_UTC: 2025-06-17 07:38:05
        _STATISTICS_TAGS: BPS DURATION NUMBER_OF_FRAMES NUMBER_OF_BYTES
  Stream #0:3(rus): Subtitle: ass (ssa)
      Metadata:
        title           : Полные
        BPS             : 112
        DURATION        : 00:23:46.640000000
        NUMBER_OF_FRAMES: 261
        NUMBER_OF_BYTES : 20051
        _STATISTICS_WRITING_APP: mkvpropedit v66.0.0 ('Josie') 64-bit
        _STATISTICS_WRITING_DATE_UTC: 2025-06-17 07:38:05
        _STATISTICS_TAGS: BPS DURATION NUMBER_OF_FRAMES NUMBER_OF_BYTES
Input #1, matroska,webm, from 'G:\Аниме\[Топ-4]\Fate\Апокриф\Fate_Apocrypha_[22]_[AniLibria_TV]_[HDTVRip_720p].mkv':
  Metadata:
    encoder         : libebml v1.3.0 + libmatroska v1.4.1
    creation_time   : 2017-12-11T18:41:52.000000Z
  Duration: 00:24:00.15, start: 0.000000, bitrate: 3011 kb/s
  Stream #1:0: Video: h264 (Main), yuv420p(tv, bt709, progressive), 1280x720, SAR 1:1 DAR 16:9, 23.81 fps, 23.81 tbr, 1k tbn (default)
      Metadata:
        BPS             : 2597023
        BPS-eng         : 2597023
        DURATION        : 00:24:00.072000000
        DURATION-eng    : 00:24:00.072000000
        NUMBER_OF_FRAMES: 34526
        NUMBER_OF_FRAMES-eng: 34526
        NUMBER_OF_BYTES : 467487675
        NUMBER_OF_BYTES-eng: 467487675
        _STATISTICS_WRITING_APP: mkvmerge v7.3.0 ('Nouages') 64bit built on Oct 22 2014 18:53:34
        _STATISTICS_WRITING_APP-eng: mkvmerge v7.3.0 ('Nouages') 64bit built on Oct 22 2014 18:53:34
        _STATISTICS_WRITING_DATE_UTC: 2017-12-11 18:41:52
        _STATISTICS_WRITING_DATE_UTC-eng: 2017-12-11 18:41:52
        _STATISTICS_TAGS: BPS DURATION NUMBER_OF_FRAMES NUMBER_OF_BYTES
        _STATISTICS_TAGS-eng: BPS DURATION NUMBER_OF_FRAMES NUMBER_OF_BYTES
  Stream #1:1(rus): Audio: aac (LC), 48000 Hz, stereo, fltp (default)
      Metadata:
        title           : Ados Amikiri Anzen Hekomi Silv
        BPS             : 192091
        BPS-eng         : 192091
        DURATION        : 00:24:00.149000000
        DURATION-eng    : 00:24:00.149000000
        NUMBER_OF_FRAMES: 67507
        NUMBER_OF_FRAMES-eng: 67507
        NUMBER_OF_BYTES : 34579998
        NUMBER_OF_BYTES-eng: 34579998
        _STATISTICS_WRITING_APP: mkvmerge v7.3.0 ('Nouages') 64bit built on Oct 22 2014 18:53:34
        _STATISTICS_WRITING_APP-eng: mkvmerge v7.3.0 ('Nouages') 64bit built on Oct 22 2014 18:53:34
        _STATISTICS_WRITING_DATE_UTC: 2017-12-11 18:41:52
        _STATISTICS_WRITING_DATE_UTC-eng: 2017-12-11 18:41:52
        _STATISTICS_TAGS: BPS DURATION NUMBER_OF_FRAMES NUMBER_OF_BYTES
        _STATISTICS_TAGS-eng: BPS DURATION NUMBER_OF_FRAMES NUMBER_OF_BYTES
  Stream #1:2(jpn): Audio: aac (LC), 48000 Hz, stereo, fltp
      Metadata:
        title           : Оригинал
        BPS             : 217227
        BPS-eng         : 217227
        DURATION        : 00:24:00.106000000
        DURATION-eng    : 00:24:00.106000000
        NUMBER_OF_FRAMES: 67505
        NUMBER_OF_FRAMES-eng: 67505
        NUMBER_OF_BYTES : 39103880
        NUMBER_OF_BYTES-eng: 39103880
        _STATISTICS_WRITING_APP: mkvmerge v7.3.0 ('Nouages') 64bit built on Oct 22 2014 18:53:34
        _STATISTICS_WRITING_APP-eng: mkvmerge v7.3.0 ('Nouages') 64bit built on Oct 22 2014 18:53:34
        _STATISTICS_WRITING_DATE_UTC: 2017-12-11 18:41:52
        _STATISTICS_WRITING_DATE_UTC-eng: 2017-12-11 18:41:52
        _STATISTICS_TAGS: BPS DURATION NUMBER_OF_FRAMES NUMBER_OF_BYTES
        _STATISTICS_TAGS-eng: BPS DURATION NUMBER_OF_FRAMES NUMBER_OF_BYTES
  Stream #1:3(rus): Subtitle: ass (ssa) (default) (forced)
      Metadata:
        title           : Надписи
        BPS             : 530
        BPS-eng         : 530
        DURATION        : 00:00:03.000000000
        DURATION-eng    : 00:00:03.000000000
        NUMBER_OF_FRAMES: 2
        NUMBER_OF_FRAMES-eng: 2
        NUMBER_OF_BYTES : 199
        NUMBER_OF_BYTES-eng: 199
        _STATISTICS_WRITING_APP: mkvmerge v7.3.0 ('Nouages') 64bit built on Oct 22 2014 18:53:34
        _STATISTICS_WRITING_APP-eng: mkvmerge v7.3.0 ('Nouages') 64bit built on Oct 22 2014 18:53:34
        _STATISTICS_WRITING_DATE_UTC: 2017-12-11 18:41:52
        _STATISTICS_WRITING_DATE_UTC-eng: 2017-12-11 18:41:52
        _STATISTICS_TAGS: BPS DURATION NUMBER_OF_FRAMES NUMBER_OF_BYTES
        _STATISTICS_TAGS-eng: BPS DURATION NUMBER_OF_FRAMES NUMBER_OF_BYTES
  Stream #1:4(rus): Subtitle: ass (ssa)
      Metadata:
        title           : Полные
        BPS             : 112
        BPS-eng         : 112
        DURATION        : 00:23:46.640000000
        DURATION-eng    : 00:23:46.640000000
        NUMBER_OF_FRAMES: 261
        NUMBER_OF_FRAMES-eng: 261
        NUMBER_OF_BYTES : 20051
        NUMBER_OF_BYTES-eng: 20051
        _STATISTICS_WRITING_APP: mkvmerge v7.3.0 ('Nouages') 64bit built on Oct 22 2014 18:53:34
        _STATISTICS_WRITING_APP-eng: mkvmerge v7.3.0 ('Nouages') 64bit built on Oct 22 2014 18:53:34
        _STATISTICS_WRITING_DATE_UTC: 2017-12-11 18:41:52
        _STATISTICS_WRITING_DATE_UTC-eng: 2017-12-11 18:41:52
        _STATISTICS_TAGS: BPS DURATION NUMBER_OF_FRAMES NUMBER_OF_BYTES
        _STATISTICS_TAGS-eng: BPS DURATION NUMBER_OF_FRAMES NUMBER_OF_BYTES
  Stream #1:5: Attachment: ttf
      Metadata:
        filename        : 9511(1).ttf
        mimetype        : application/x-truetype-font
  Stream #1:6: Attachment: ttf
      Metadata:
        filename        : ALBR.ttf
        mimetype        : application/x-truetype-font
Stream mapping:
  Stream #0:0 (hevc) -> settb:default
  Stream #1:0 (h264) -> settb:default
  ssim:default -> Stream #0:0 (wrapped_avframe)
  Stream #0:1 -> #0:1 (aac (native) -> pcm_s16le (native))
Output #0, null, to 'pipe:':
  Metadata:
    encoder         : Lavf61.7.100
  Stream #0:0: Video: wrapped_avframe, yuv420p10le(tv, bt709, progressive), 1280x720 [SAR 1:1 DAR 16:9], q=2-31, 200 kb/s, 23.98 fps, 23.98 tbn
      Metadata:
        encoder         : Lavc61.19.100 wrapped_avframe
  Stream #0:1(rus): Audio: pcm_s16le, 48000 Hz, stereo, s16, 1536 kb/s (default)
      Metadata:
        title           : Ados Amikiri Anzen Hekomi Silv
        _STATISTICS_TAGS: BPS DURATION NUMBER_OF_FRAMES NUMBER_OF_BYTES
        BPS             : 194402
        DURATION        : 00:24:00.149000000
        NUMBER_OF_FRAMES: 67508
        NUMBER_OF_BYTES : 34996048
        _STATISTICS_WRITING_APP: mkvpropedit v66.0.0 ('Josie') 64-bit
        _STATISTICS_WRITING_DATE_UTC: 2025-06-17 07:38:05
        encoder         : Lavc61.19.100 pcm_s16le
frame=  364 fps=0.0 q=-0.0 size=N/A time=00:00:15.18 bitrate=N/A speed=29.7x    frame=  709 fps=686 q=-0.0 size=N/A time=00:00:29.57 bitrate=N/A speed=28.6x    frame= 1154 fps=747 q=-0.0 size=N/A time=00:00:48.13 bitrate=N/A speed=31.1x    frame= 1531 fps=745 q=-0.0 size=N/A time=00:01:03.85 bitrate=N/A speed=31.1x    frame= 1974 fps=766 q=-0.0 size=N/A time=00:01:22.33 bitrate=N/A speed=31.9x    frame= 2322 fps=753 q=-0.0 size=N/A time=00:01:36.84 bitrate=N/A speed=31.4x    frame= 2754 fps=763 q=-0.0 size=N/A time=00:01:54.86 bitrate=N/A speed=31.8x    frame= 3153 fps=764 q=-0.0 size=N/A time=00:02:11.50 bitrate=N/A speed=31.9x    frame= 3569 fps=770 q=-0.0 size=N/A time=00:02:28.85 bitrate=N/A speed=32.1x    frame= 3952 fps=766 q=-0.0 size=N/A time=00:02:44.83 bitrate=N/A speed=31.9x    frame= 4444 fps=784 q=-0.0 size=N/A time=00:03:05.35 bitrate=N/A speed=32.7x    frame= 4860 fps=785 q=-0.0 size=N/A time=00:03:22.70 bitrate=N/A speed=32.7x    frame= 5260 fps=785 q=-0.0 size=N/A time=00:03:39.38 bitrate=N/A speed=32.8x    frame= 5780 fps=801 q=-0.0 size=N/A time=00:04:01.07 bitrate=N/A speed=33.4x    frame= 6304 fps=816 q=-0.0 size=N/A time=00:04:22.92 bitrate=N/A speed=  34x    frame= 6837 fps=828 q=-0.0 size=N/A time=00:04:45.15 bitrate=N/A speed=34.5x    frame= 7349 fps=837 q=-0.0 size=N/A time=00:05:06.51 bitrate=N/A speed=34.9x    frame= 7954 fps=857 q=-0.0 size=N/A time=00:05:31.74 bitrate=N/A speed=35.7x    frame= 8519 fps=868 q=-0.0 size=N/A time=00:05:55.31 bitrate=N/A speed=36.2x    frame= 9056 fps=877 q=-0.0 size=N/A time=00:06:17.71 bitrate=N/A speed=36.6x    frame= 9599 fps=886 q=-0.0 size=N/A time=00:06:40.35 bitrate=N/A speed=36.9x    frame=10038 fps=884 q=-0.0 size=N/A time=00:06:58.66 bitrate=N/A speed=36.9x    frame=10556 fps=889 q=-0.0 size=N/A time=00:07:20.27 bitrate=N/A speed=37.1x    frame=11064 fps=893 q=-0.0 size=N/A time=00:07:41.46 bitrate=N/A speed=37.2x    frame=11400 fps=884 q=-0.0 size=N/A time=00:07:55.47 bitrate=N/A speed=36.9x    frame=11846 fps=882 q=-0.0 size=N/A time=00:08:14.07 bitrate=N/A speed=36.8x    frame=12301 fps=883 q=-0.0 size=N/A time=00:08:33.05 bitrate=N/A speed=36.8x    frame=12658 fps=876 q=-0.0 size=N/A time=00:08:47.94 bitrate=N/A speed=36.6x    frame=13075 fps=873 q=-0.0 size=N/A time=00:09:05.33 bitrate=N/A speed=36.4x    frame=13449 fps=869 q=-0.0 size=N/A time=00:09:20.93 bitrate=N/A speed=36.2x    frame=13937 fps=872 q=-0.0 size=N/A time=00:09:41.28 bitrate=N/A speed=36.4x    frame=14514 fps=879 q=-0.0 size=N/A time=00:10:05.35 bitrate=N/A speed=36.6x    frame=14987 fps=880 q=-0.0 size=N/A time=00:10:25.08 bitrate=N/A speed=36.7x    frame=15481 fps=883 q=-0.0 size=N/A time=00:10:45.68 bitrate=N/A speed=36.8x    frame=15919 fps=882 q=-0.0 size=N/A time=00:11:03.95 bitrate=N/A speed=36.8x    frame=16323 fps=878 q=-0.0 size=N/A time=00:11:20.80 bitrate=N/A speed=36.6x    frame=16876 fps=884 q=-0.0 size=N/A time=00:11:43.86 bitrate=N/A speed=36.9x    frame=17345 fps=885 q=-0.0 size=N/A time=00:12:03.43 bitrate=N/A speed=36.9x    frame=17510 fps=870 q=-0.0 size=N/A time=00:12:10.31 bitrate=N/A speed=36.3x    frame=17839 fps=864 q=-0.0 size=N/A time=00:12:24.03 bitrate=N/A speed=  36x    frame=18168 fps=859 q=-0.0 size=N/A time=00:12:37.75 bitrate=N/A speed=35.8x    frame=18570 fps=857 q=-0.0 size=N/A time=00:12:54.52 bitrate=N/A speed=35.7x    frame=18933 fps=853 q=-0.0 size=N/A time=00:13:09.66 bitrate=N/A speed=35.6x    frame=19301 fps=850 q=-0.0 size=N/A time=00:13:25.01 bitrate=N/A speed=35.5x    frame=19767 fps=851 q=-0.0 size=N/A time=00:13:44.44 bitrate=N/A speed=35.5x    frame=20008 fps=843 q=-0.0 size=N/A time=00:13:54.50 bitrate=N/A speed=35.1x    frame=20296 fps=837 q=-0.0 size=N/A time=00:14:06.51 bitrate=N/A speed=34.9x    frame=20584 fps=831 q=-0.0 size=N/A time=00:14:18.52 bitrate=N/A speed=34.6x    frame=20962 fps=829 q=-0.0 size=N/A time=00:14:34.29 bitrate=N/A speed=34.6x    frame=21337 fps=827 q=-0.0 size=N/A time=00:14:49.93 bitrate=N/A speed=34.5x    frame=21762 fps=826 q=-0.0 size=N/A time=00:15:07.65 bitrate=N/A speed=34.5x    frame=22139 fps=825 q=-0.0 size=N/A time=00:15:23.38 bitrate=N/A speed=34.4x    frame=22420 fps=820 q=-0.0 size=N/A time=00:15:35.10 bitrate=N/A speed=34.2x    frame=22925 fps=822 q=-0.0 size=N/A time=00:15:56.16 bitrate=N/A speed=34.3x    frame=23412 fps=825 q=-0.0 size=N/A time=00:16:16.47 bitrate=N/A speed=34.4x    frame=23727 fps=821 q=-0.0 size=N/A time=00:16:29.61 bitrate=N/A speed=34.2x    frame=24091 fps=819 q=-0.0 size=N/A time=00:16:44.79 bitrate=N/A speed=34.1x    frame=24476 fps=818 q=-0.0 size=N/A time=00:17:00.85 bitrate=N/A speed=34.1x    frame=24812 fps=815 q=-0.0 size=N/A time=00:17:14.86 bitrate=N/A speed=  34x    frame=25202 fps=814 q=-0.0 size=N/A time=00:17:31.13 bitrate=N/A speed=33.9x    frame=25652 fps=815 q=-0.0 size=N/A time=00:17:49.90 bitrate=N/A speed=  34x    frame=26177 fps=818 q=-0.0 size=N/A time=00:18:11.79 bitrate=N/A speed=34.1x    frame=26583 fps=818 q=-0.0 size=N/A time=00:18:28.73 bitrate=N/A speed=34.1x    frame=27046 fps=819 q=-0.0 size=N/A time=00:18:48.04 bitrate=N/A speed=34.2x    frame=27459 fps=819 q=-0.0 size=N/A time=00:19:05.26 bitrate=N/A speed=34.1x    frame=27837 fps=817 q=-0.0 size=N/A time=00:19:21.03 bitrate=N/A speed=34.1x    frame=28137 fps=814 q=-0.0 size=N/A time=00:19:33.54 bitrate=N/A speed=33.9x    frame=28567 fps=814 q=-0.0 size=N/A time=00:19:51.48 bitrate=N/A speed=  34x    frame=29084 fps=817 q=-0.0 size=N/A time=00:20:13.04 bitrate=N/A speed=34.1x    frame=29645 fps=821 q=-0.0 size=N/A time=00:20:36.44 bitrate=N/A speed=34.2x    frame=30297 fps=827 q=-0.0 size=N/A time=00:21:03.63 bitrate=N/A speed=34.5x    frame=30795 fps=829 q=-0.0 size=N/A time=00:21:24.40 bitrate=N/A speed=34.6x    frame=31305 fps=831 q=-0.0 size=N/A time=00:21:45.67 bitrate=N/A speed=34.7x    frame=31797 fps=832 q=-0.0 size=N/A time=00:22:06.19 bitrate=N/A speed=34.7x    frame=32263 fps=833 q=-0.0 size=N/A time=00:22:25.63 bitrate=N/A speed=34.8x    frame=32726 fps=834 q=-0.0 size=N/A time=00:22:44.94 bitrate=N/A speed=34.8x    frame=33236 fps=836 q=-0.0 size=N/A time=00:23:06.21 bitrate=N/A speed=34.9x    frame=33699 fps=837 q=-0.0 size=N/A time=00:23:25.52 bitrate=N/A speed=34.9x    frame=34041 fps=835 q=-0.0 size=N/A time=00:23:39.79 bitrate=N/A speed=34.8x    frame=34504 fps=836 q=-0.0 size=N/A time=00:23:59.10 bitrate=N/A speed=34.9x    [Parsed_ssim_10 @ 000002abaa937480] SSIM Y:0.983676 (17.871728) U:0.988107 (19.247184) V:0.988176 (19.272514) All:0.985165 (18.287008)
[out#0/null @ 000002abaa3e6880] video:14836KiB audio:270032KiB subtitle:0KiB other streams:0KiB global headers:0KiB muxing overhead: unknown
frame=34527 fps=836 q=-0.0 Lsize=N/A time=00:24:00.06 bitrate=N/A speed=34.9x    
